HIERARCHY
ROOT hip
{
  OFFSET 0 0 0
  CHANNELS 6 Xposition Yposition Zposition Zrotation Yrotation Xrotation
  JOINT abdomen
  {
    OFFSET 0 20.6881 -0.73152
    CHANNELS 3 Zrotation Xrotation Yrotation
    JOINT chest
    {
      OFFSET 0 11.7043 -0.48768
      CHANNELS 3 Zrotation Xrotation Yrotation
      JOINT neck
      {
        OFFSET 0 22.1894 -2.19456
        CHANNELS 3 Zrotation Xrotation Yrotation
        JOINT head
        {
          OFFSET -0.24384 7.07133 1.2192
          CHANNELS 3 Zrotation Xrotation Yrotation
          JOINT leftEye
          {
            OFFSET 4.14528 8.04674 8.04672
            CHANNELS 3 Zrotation Xrotation Yrotation
            End Site
            {
              OFFSET 1 0 0
            }
          }
          JOINT rightEye
          {
            OFFSET -3.6576 8.04674 8.04672
            CHANNELS 3 Zrotation Xrotation Yrotation
            End Site
            {
              OFFSET 1 0 0
            }
          }
        }
      }
      JOINT rCollar
      {
        OFFSET -2.68224 19.2634 -4.8768
        CHANNELS 3 Zrotation Xrotation Yrotation
        JOINT rShldr
        {
          OFFSET -8.77824 -1.95073 1.46304
          CHANNELS 3 Zrotation Xrotation Yrotation
          JOINT rForeArm
          {
            OFFSET -28.1742 -1.7115 0.48768
            CHANNELS 3 Zrotation Xrotation Yrotation
            JOINT rHand
            {
              OFFSET -22.5879 0.773209 7.07136
              CHANNELS 3 Zrotation Xrotation Yrotation
              JOINT rThumb1
              {
                OFFSET -1.2192 -0.487915 3.41376
                CHANNELS 3 Zrotation Xrotation Yrotation
                JOINT rThumb2
                {
                  OFFSET -3.37035 -0.52449 3.41376
                  CHANNELS 3 Zrotation Xrotation Yrotation
                  End Site
                  {
                    OFFSET -1.78271 -1.18214 1.43049
                  }
                }
              }
              JOINT rIndex1
              {
                OFFSET -7.75947 0.938293 5.60832
                CHANNELS 3 Zrotation Xrotation Yrotation
                JOINT rIndex2
                {
                  OFFSET -2.54057 -0.884171 1.56538
                  CHANNELS 3 Zrotation Xrotation Yrotation
                  End Site
                  {
                    OFFSET -1.62519 -0.234802 1.16502
                  }
                }
              }
              JOINT rMid1
              {
                OFFSET -8.24714 1.18213 3.41376
                CHANNELS 3 Zrotation Xrotation Yrotation
                JOINT rMid2
                {
                  OFFSET -3.10165 -0.590103 1.0647
                  CHANNELS 3 Zrotation Xrotation Yrotation
                  End Site
                  {
                    OFFSET -2.48547 -0.328903 0.83742
                  }
                }
              }
              JOINT rRing1
              {
                OFFSET -8.82822 0.546677 1.51678
                CHANNELS 3 Zrotation Xrotation Yrotation
                JOINT rRing2
                {
                  OFFSET -2.60934 -0.819778 -0.0198488
                  CHANNELS 3 Zrotation Xrotation Yrotation
                  End Site
                  {
                    OFFSET -2.33842 -0.294052 0.168128
                  }
                }
              }
              JOINT rPinky1
              {
                OFFSET -8.27202 -0.0477905 -0.4584
                CHANNELS 3 Zrotation Xrotation Yrotation
                JOINT rPinky2
                {
                  OFFSET -1.82734 -0.647385 -0.700984
                  CHANNELS 3 Zrotation Xrotation Yrotation
                  End Site
                  {
                    OFFSET -1.69225 -0.51767 -0.607171
                  }
                }
              }
            }
          }
        }
      }
      JOINT lCollar
      {
        OFFSET 2.68224 19.2634 -4.8768
        CHANNELS 3 Zrotation Xrotation Yrotation
        JOINT lShldr
        {
          OFFSET 8.77824 -1.95073 1.46304
          CHANNELS 3 Zrotation Xrotation Yrotation
          JOINT lForeArm
          {
            OFFSET 28.1742 -1.7115 0.48768
            CHANNELS 3 Zrotation Xrotation Yrotation
            JOINT lHand
            {
              OFFSET 22.5879 0.773209 7.07136
              CHANNELS 3 Zrotation Xrotation Yrotation
              JOINT lThumb1
              {
                OFFSET 1.2192 -0.487915 3.41376
                CHANNELS 3 Zrotation Xrotation Yrotation
                JOINT lThumb2
                {
                  OFFSET 3.37035 -0.52449 3.41376
                  CHANNELS 3 Zrotation Xrotation Yrotation
                  End Site
                  {
                    OFFSET 1.78271 -1.18214 1.43049
                  }
                }
              }
              JOINT lIndex1
              {
                OFFSET 7.75947 0.938293 5.60832
                CHANNELS 3 Zrotation Xrotation Yrotation
                JOINT lIndex2
                {
                  OFFSET 2.54057 -0.884171 1.56538
                  CHANNELS 3 Zrotation Xrotation Yrotation
                  End Site
                  {
                    OFFSET 1.62519 -0.234802 1.16502
                  }
                }
              }
              JOINT lMid1
              {
                OFFSET 8.24714 1.18213 3.41376
                CHANNELS 3 Zrotation Xrotation Yrotation
                JOINT lMid2
                {
                  OFFSET 3.10165 -0.590103 1.0647
                  CHANNELS 3 Zrotation Xrotation Yrotation
                  End Site
                  {
                    OFFSET 2.48547 -0.328903 0.83742
                  }
                }
              }
              JOINT lRing1
              {
                OFFSET 8.82822 0.546677 1.51678
                CHANNELS 3 Zrotation Xrotation Yrotation
                JOINT lRing2
                {
                  OFFSET 2.60934 -0.819778 -0.0198488
                  CHANNELS 3 Zrotation Xrotation Yrotation
                  End Site
                  {
                    OFFSET 2.33842 -0.294052 0.168128
                  }
                }
              }
              JOINT lPinky1
              {
                OFFSET 8.27202 -0.0477905 -0.4584
                CHANNELS 3 Zrotation Xrotation Yrotation
                JOINT lPinky2
                {
                  OFFSET 1.82734 -0.647385 -0.700984
                  CHANNELS 3 Zrotation Xrotation Yrotation
                  End Site
                  {
                    OFFSET 1.69225 -0.51767 -0.607171
                  }
                }
              }
            }
          }
        }
      }
    }
  }
  JOINT rButtock
  {
    OFFSET -8.77824 4.35084 1.2192
    CHANNELS 3 Zrotation Xrotation Yrotation
    JOINT rThigh
    {
      OFFSET 0 -1.70687 -2.19456
      CHANNELS 3 Zrotation Xrotation Yrotation
      JOINT rShin
      {
        OFFSET 0 -36.8199 0.73152
        CHANNELS 3 Zrotation Xrotation Yrotation
        JOINT rFoot
        {
          OFFSET 0.73152 -45.1104 -5.12064
          CHANNELS 3 Zrotation Xrotation Yrotation
          End Site
          {
            OFFSET -1.1221 -3.69964 12.103
          }
        }
      }
    }
  }
  JOINT lButtock
  {
    OFFSET 8.77824 4.35084 1.2192
    CHANNELS 3 Zrotation Xrotation Yrotation
    JOINT lThigh
    {
      OFFSET 0 -1.70687 -2.19456
      CHANNELS 3 Zrotation Xrotation Yrotation
      JOINT lShin
      {
        OFFSET 0 -36.8199 0.73152
        CHANNELS 3 Zrotation Xrotation Yrotation
        JOINT lFoot
        {
          OFFSET -0.73152 -45.1104 -5.12064
          CHANNELS 3 Zrotation Xrotation Yrotation
          End Site
          {
            OFFSET 1.1221 -3.69964 12.103
          }
        }
      }
    }
  }
}
MOTION
Frames:	5
Frame Time:	0.00833333
66.7541 85.1115 65.7232 1.5709 4.803 2.8703 -4.53854 -4.04268 -1.882 1.33888 3.96491 -0.448418 1.18143 18.1179 -0.490909 5.48972 -15.5664 -0.135946 -0.0 0.0 0.0 -0.0 0.0 0.0 -2.0184e-14 -1.18998e-13 -3.4222e-14 86.6474 16.0876 -17.8191 -10.7193 -4.59013 19.1575 -0.0883526 8.45007 1.19635 1.27883e-10 -7.05214e-10 1.01998e-09 2.29194e-10 -1.22116e-09 1.76271e-09 1.27888e-10 -7.05216e-10 1.01997e-09 7.73091 5.47488 0.417314 1.27882e-10 -7.05218e-10 1.01998e-09 2.90554 0.965183 0.102902 1.27886e-10 -7.05216e-10 1.01997e-09 10.2786 0.731801 0.0259123 1.27879e-10 -7.05215e-10 1.01998e-09 2.22167 -0.733487 -0.20892 -2.02265e-14 -1.18998e-13 -3.43587e-14 -46.3833 45.3104 -32.8674 13.4248 -6.49965 -24.4042 0.223033 -13.3315 1.90853 3.28298e-10 3.89214e-10 7.2977e-11 5.62708e-10 6.71701e-10 1.31626e-10 3.28285e-10 3.89209e-10 7.29917e-11 -7.73091 5.47488 -0.417314 3.28297e-10 3.8921e-10 7.29752e-11 -2.90554 0.965183 -0.102902 3.28294e-10 3.89209e-10 7.29763e-11 -10.2786 0.731801 -0.0259123 3.28304e-10 3.89212e-10 7.29725e-11 -2.22167 -0.733487 0.20892 -2.03217e-16 0.0 -3.88251e-19 -5.97125 -26.1097 -1.39377 -0.0307933 20.9728 0.163763 -6.79115 -16.577 -18.9713 2.03217e-16 0.0 3.88251e-19 -0.925459 5.04274 -0.860665 0.0303907 3.85301 0.124419 -1.03605 -2.51389 -12.1432
66.7999 84.9782 66.5787 1.631 5.0079 3.0289 -4.46158 -4.2541 -1.97725 1.46312 4.01813 -0.476562 1.1256 18.2157 -0.520375 5.92574 -15.2426 -0.148171 -0.0 0.0 0.0 -0.0 0.0 0.0 1.95154e-14 -1.7786e-13 -8.08821e-14 86.8388 15.9904 -18.0984 -10.6727 -4.56038 19.0692 -0.0924585 8.64205 1.22395 -4.53031e-10 -6.74648e-10 8.69319e-10 -7.75158e-10 -1.16739e-09 1.50665e-09 -4.53028e-10 -6.74649e-10 8.69307e-10 7.73091 5.47488 0.417314 -4.53033e-10 -6.74648e-10 8.69317e-10 2.90554 0.965183 0.102902 -4.53032e-10 -6.74645e-10 8.69308e-10 10.2786 0.731801 0.0259123 -4.53034e-10 -6.74644e-10 8.69313e-10 2.22167 -0.733487 -0.20892 1.94236e-14 -1.7786e-13 -8.10832e-14 -46.1271 45.1881 -33.0472 13.8111 -6.80232 -25.177 0.235036 -13.6766 1.95986 1.70839e-10 -3.69927e-10 -3.29248e-10 2.93919e-10 -6.36321e-10 -5.6507e-10 1.70825e-10 -3.69933e-10 -3.29232e-10 -7.73091 5.47488 -0.417314 1.70838e-10 -3.69933e-10 -3.29245e-10 -2.90554 0.965183 -0.102902 1.70834e-10 -3.69934e-10 -3.29244e-10 -10.2786 0.731801 -0.0259123 1.70846e-10 -3.69932e-10 -3.29247e-10 -2.22167 -0.733487 0.20892 -2.03217e-16 0.0 -3.88251e-19 -5.6252 -26.3213 -0.399719 -0.0268397 19.0754 0.115031 -7.63455 -17.755 -20.4605 2.03217e-16 0.0 3.88251e-19 -0.835789 5.41646 -0.84984 0.0343911 3.87314 0.155898 -1.10921 -2.48831 -12.6498
66.854 84.8358 67.4404 1.7304 5.1933 3.1844 -4.40141 -4.44881 -2.0788 1.58447 4.07684 -0.507391 1.08215 18.2939 -0.546839 6.30254 -14.972 -0.160956 -0.0 0.0 0.0 -0.0 0.0 0.0 4.56374e-14 -2.05146e-13 -8.25453e-14 86.9997 15.9291 -18.3352 -10.6336 -4.53539 18.9951 -0.0964021 8.82141 1.24976 -8.48973e-10 -4.90826e-10 8.16175e-10 -1.45937e-09 -8.48696e-10 1.41797e-09 -8.48972e-10 -4.90826e-10 8.16162e-10 7.73091 5.47488 0.417314 -8.48977e-10 -4.90824e-10 8.16172e-10 2.90554 0.965183 0.102902 -8.48977e-10 -4.9082e-10 8.16162e-10 10.2786 0.731801 0.0259123 -8.48976e-10 -4.90819e-10 8.16165e-10 2.22167 -0.733487 -0.20892 4.55083e-14 -2.05147e-13 -8.27938e-14 -45.9681 45.0419 -33.1329 14.2059 -7.12177 -25.9692 0.247321 -14.0203 2.01112 -7.60789e-11 -1.10438e-09 -5.84036e-10 -1.30186e-10 -1.90458e-09 -1.00835e-09 -7.6094e-11 -1.10438e-09 -5.8402e-10 -7.73091 5.47488 -0.417314 -7.60807e-11 -1.10438e-09 -5.84029e-10 -2.90554 0.965183 -0.102902 -7.60851e-11 -1.10438e-09 -5.8403e-10 -10.2786 0.731801 -0.0259123 -7.60719e-11 -1.10438e-09 -5.84033e-10 -2.22167 -0.733487 0.20892 -2.03217e-16 0.0 -3.88251e-19 -5.30676 -26.5278 0.662911 -0.0252619 17.2906 0.064858 -8.44171 -18.8297 -21.8322 2.03217e-16 0.0 3.88251e-19 -0.779708 5.7776 -0.838466 0.0389404 3.94112 0.188687 -1.18123 -2.45389 -13.1637
66.9164 84.6869 68.3079 1.8635 5.363 3.3381 -4.37052 -4.62404 -2.19241 1.70567 4.14685 -0.542976 1.05446 18.3486 -0.566926 6.61283 -14.7712 -0.168353 -0.0 0.0 0.0 -0.0 0.0 0.0 5.10969e-14 -1.82121e-13 -1.02836e-14 87.1232 15.9134 -18.5188 -10.6051 -4.51727 18.9414 -0.100044 8.98386 1.27316 -9.66033e-10 -4.0154e-11 9.47019e-10 -1.66059e-09 -6.8683e-11 1.64561e-09 -9.66031e-10 -4.01518e-11 9.47007e-10 7.73091 5.47488 0.417314 -9.66037e-10 -4.01505e-11 9.47016e-10 2.90554 0.965183 0.102902 -9.66036e-10 -4.01471e-11 9.47008e-10 10.2786 0.731801 0.0259123 -9.66036e-10 -4.01459e-11 9.47012e-10 2.22167 -0.733487 -0.20892 5.09467e-14 -1.82122e-13 -1.05608e-14 -45.918 44.8555 -33.1158 14.6109 -7.45933 -26.7887 0.26002 -14.3673 2.06304 -5.01752e-10 -1.86367e-09 -6.15935e-10 -8.64248e-10 -3.22074e-09 -1.069e-09 -5.01766e-10 -1.86367e-09 -6.15921e-10 -7.73091 5.47488 -0.417314 -5.01753e-10 -1.86367e-09 -6.15929e-10 -2.90554 0.965183 -0.102902 -5.01758e-10 -1.86368e-09 -6.15931e-10 -10.2786 0.731801 -0.0259123 -5.01745e-10 -1.86367e-09 -6.15934e-10 -2.22167 -0.733487 0.20892 -2.03217e-16 0.0 -3.88251e-19 -5.04895 -26.7299 1.7332 -0.0269004 15.6081 0.0119887 -9.13353 -19.7365 -23.0071 2.03217e-16 0.0 3.88251e-19 -0.772266 6.129 -0.819628 0.0439279 4.05327 0.224539 -1.25347 -2.41098 -13.6911
66.9888 84.5328 69.1832 2.0139 5.5212 3.4887 -4.3599 -4.79112 -2.3087 1.82347 4.22266 -0.580414 1.0355 18.3893 -0.581778 6.87322 -14.6238 -0.171555 -0.0 0.0 0.0 -0.0 0.0 0.0 4.53629e-14 -1.24663e-13 1.10614e-13 87.2209 15.9369 -18.6648 -10.5854 -4.50471 18.904 -0.103466 9.13473 1.2949 -9.28742e-10 6.14739e-10 1.16471e-09 -1.59461e-09 1.0645e-09 2.02246e-09 -9.28739e-10 6.14742e-10 1.1647e-09 7.73091 5.47488 0.417314 -9.28747e-10 6.14742e-10 1.16471e-09 2.90554 0.965183 0.102902 -9.28741e-10 6.14745e-10 1.1647e-09 10.2786 0.731801 0.0259123 -9.28746e-10 6.14746e-10 1.16471e-09 2.22167 -0.733487 -0.20892 4.51989e-14 -1.24664e-13 1.10316e-13 -45.9716 44.6395 -32.9957 15.0241 -7.81228 -27.6363 0.273212 -14.7184 2.11572 -1.07617e-09 -2.70129e-09 -5.14889e-10 -1.85579e-09 -4.67552e-09 -9.01964e-10 -1.07618e-09 -2.70129e-09 -5.14877e-10 -7.73091 5.47488 -0.417314 -1.07617e-09 -2.70129e-09 -5.14885e-10 -2.90554 0.965183 -0.102902 -1.07617e-09 -2.70129e-09 -5.14889e-10 -10.2786 0.731801 -0.0259123 -1.07616e-09 -2.70128e-09 -5.14893e-10 -2.22167 -0.733487 0.20892 -2.03217e-16 0.0 -3.88251e-19 -4.83458 -26.9393 2.81257 -0.0321672 14.037 -0.0422107 -9.74937 -20.5489 -24.0505 2.03217e-16 0.0 3.88251e-19 -0.798472 6.46861 -0.785528 0.0491976 4.20061 0.263268 -1.32548 -2.36243 -14.2264
